# xmcd
#
# Track frame offsets: 
#        150
#        20410
#        50587
#        77082
#        107030
#        128292
#        152007
#        169637
#        190295
#        211527
#        233655
#        248620
#        273527
#        301935
#        329537
#
# Disc length: 4651 seconds
#
# Revision: 0
# Processed by: cddbd v1.5.2PL0 Copyright (c) Steve Scherf et al.
# Submitted via: ExactAudioCopy v1.0b1
#
DISCID=b812290f
DTITLE=陳昇 - 滾石24K24Bit珍藏版金碟
DYEAR=1997
DGENRE=Pop
TTITLE0=把悲傷留給自己
TTITLE1=別讓我哭
TTITLE2=六月
TTITLE3=SUMMER
TTITLE4=最後一盞燈
TTITLE5=我喜歡私奔和我自己
TTITLE6=然而
TTITLE7=半生情
TTITLE8=風箏
TTITLE9=最後一次溫柔
TTITLE10=擁擠的樂園
TTITLE11=不再讓你孤單
TTITLE12=我的明天
TTITLE13=北京一夜
TTITLE14=恨情歌
EXTD=
EXTT0=
EXTT1=
EXTT2=
EXTT3=
EXTT4=
EXTT5=
EXTT6=
EXTT7=
EXTT8=
EXTT9=
EXTT10=
EXTT11=
EXTT12=
EXTT13=
EXTT14=
PLAYORDER=
